<?xml version="1.0" encoding="UTF-8" standalone="no"?>
<svg width="294px" height="66px" viewBox="0 0 294 66" version="1.1" xmlns="http://www.w3.org/2000/svg" xmlns:xlink="http://www.w3.org/1999/xlink">
    <!-- Generator: Sketch 46.1 (44463) - http://www.bohemiancoding.com/sketch -->
    <title>logo</title>
    <desc>Created with Sketch.</desc>
    <defs></defs>
    <g id="Page-1" stroke="none" stroke-width="1" fill="none" fill-rule="evenodd">
        <g id="logo" fill-rule="nonzero">
            <g id="marchio" transform="translate(0.000000, 5.000000)" fill="#77B72C">
                <g id="XMLID_1_">
                    <polygon id="XMLID_2_" points="0 15.5 24.6 26.7 24.6 33.9 0 45.1"></polygon>
                    <polygon id="XMLID_3_" points="4.4 49.9 27.7 39.3 51.1 49.9 27.7 60.5"></polygon>
                    <polygon id="XMLID_4_" points="4.4 10.7 27.7 0.1 51.1 10.7 27.7 21.3"></polygon>
                    <polygon id="XMLID_5_" points="30.9 33.9 30.9 26.7 55.5 15.5 55.5 45.1"></polygon>
                </g>
            </g>
            <g transform="translate(69.000000, 0.000000)" id="XMLID_6_">
                <g>
                    <path d="M120.9,36.1 C119.6,45.7 112.7,50.9 103.2,50.9 C97.8,50.9 93.4,49.7 89.5,45.8 C85.7,42 84,37 84,31.6 C84,20.4 91.7,12.1 103.2,12.1 C112.4,12.1 119.7,17.5 120.8,26.8 L108,27.9 L107.9,27.5 C107.4,24.9 106.8,22 103.6,22 C99,22 99,28.1 99,31.3 C99,34.8 99.1,40.5 103.8,40.5 C106.9,40.5 108.1,37.7 108.5,34.9 L120.9,36.1 Z" id="XMLID_7_" fill="#244468"></path>
                    <polygon id="XMLID_8_" fill="#244468" points="152.5 25.6 165 50.1 149.9 50.1 142.9 35.1 139.2 39.8 139.2 50.1 124.8 50.1 124.8 0 139.2 0 139.2 27 142.4 22.9 151.1 12.8 163.7 12.8"></polygon>
                    <rect id="XMLID_9_" fill="#244468" x="167.9" y="0" width="14.5" height="50.1"></rect>
                    <path d="M207.9,32.6 L214.4,12.7 L225,12.7 L210.6,52.3 C207.8,60 204.1,63 195.8,63 C193.6,63 191.3,62.9 188.4,62.6 L188.4,52.3 C190.2,52.5 191.9,52.7 193.7,52.7 C195.7,52.7 200.1,52.8 200.1,49.9 C200.1,48.8 199.5,47.6 199.1,46.5 L186,12.8 L201.7,12.8 L207.9,32.6 Z" id="XMLID_10_" fill="#244468"></path>
                    <path d="M15.4,26.7 L15.4,26 C15.4,26.2 15.4,26.4 15.4,26.7" id="XMLID_11_" fill="#FFFFFF"></path>
                    <path d="M25,12 C22.9,12 20.9,12.3 19.3,12.9 L19.3,21.2 C19.4,21.2 19.4,21.2 19.5,21.2 C24.1,21.2 24,28.6 24,31.6 C24,33.7 23.8,36.3 23.3,38.4 C22.7,40.4 21.4,41.5 19.4,41.5 C15.9,41.5 15.5,38.1 15.5,35.4 L15.5,12.8 L0.9,12.8 L0.9,61.9 L15.4,61.9 L15.4,46.1 C17.7,49.4 21.2,50.8 25,50.8 C30.2,50.8 34.1,48 36.5,43.6 C38.5,39.9 39.1,35.2 39.1,31 C39.1,22.3 35.5,12 25,12" id="XMLID_12_" fill="#244468"></path>
                    <path d="M80,41.9 L80,28.8 C80,23.5 80.6,18.7 75.7,15.2 C72,12.6 66.4,12 62,12 C53.6,12 44.8,14.4 42.6,23.7 L55.9,24.9 C56.3,21.8 58.8,20.7 61.6,20.7 C65.1,20.7 66,22 66,25.4 L66,25.7 C61.1,26 56.1,26.6 51.3,28 C46.1,29.6 41.5,33.6 41.5,39.5 C41.5,46.9 47.6,50.7 54.5,50.7 C57.3,50.7 59.8,50.2 62,49.1 L62,41.8 C61.5,41.9 61,42 60.4,42 C58.1,42 56.6,41 56.6,38.6 C56.6,34.1 62.4,33 65.9,32.6 L65.9,33.3 C65.9,34.1 65.9,34.9 65.9,33.3 L65.9,43.5 C65.9,47.8 66.6,49.4 67.2,50 L81.1,50 C80.1,47.5 80,44.7 80,41.9" id="XMLID_13_" fill="#244468"></path>
                </g>
            </g>
        </g>
    </g>
</svg>